<svg width="212" height="93" viewBox="0 0 212 93" fill="none" xmlns="http://www.w3.org/2000/svg">
<g clip-path="url(#clip0_44_4533)">
<mask id="mask0_44_4533" style="mask-type:luminance" maskUnits="userSpaceOnUse" x="15" y="28" width="55" height="57">
<path d="M69.8853 57.154C69.8853 57.154 66.14 53.9509 62.439 53.0774C60.5941 52.642 58.565 53.798 57.8009 55.753C55.744 61.0137 64.9406 65.3005 66.9248 72.9586C68.1416 77.6558 67.6301 83.4155 61.6251 84.5257C55.8942 85.5858 54.5468 78.9546 54.655 73.4634C54.7733 67.4955 53.1238 59.5617 45.5576 59.3156C43.3219 59.2431 41.0535 59.9375 38.7517 60.2116C33.8668 60.7938 19.8027 72.4418 16.5456 65.3075C13.2885 58.1732 21.7268 44.6332 21.7268 44.6332L42.442 28.9756L68.657 42.0122L69.8853 44.9881V57.154Z" fill="white"/>
</mask>
<g mask="url(#mask0_44_4533)">
<path d="M69.8853 28.9756H13.2886V85.5858H69.8853V28.9756Z" fill="url(#paint0_linear_44_4533)"/>
</g>
<path opacity="0.3" fill-rule="evenodd" clip-rule="evenodd" d="M46.9 59.4482C46.4748 59.3759 46.0276 59.331 45.558 59.3155C43.3222 59.2429 41.0538 59.9373 38.7521 60.2114C37.1461 60.4028 34.5479 61.7903 31.668 63.3134C27.5771 60.4665 22.2166 61.2645 16.5866 59.8202C16.3958 59.4795 16.2087 59.1372 16.0244 58.7928C17.1076 52.0466 21.7271 44.633 21.7271 44.633L42.4423 28.9753L68.6572 42.012L69.8856 44.9879V51.8578C55.1784 37.9655 42.6642 48.3143 43.012 52.7582C43.2442 55.7289 45.3584 58.0968 46.9 59.4482Z" fill="#870000"/>
<path opacity="0.3" fill-rule="evenodd" clip-rule="evenodd" d="M27.1681 65.5926C22.5872 67.7237 18.1898 68.9085 16.5456 65.3075C13.2885 58.1732 21.7268 44.6332 21.7268 44.6332L42.442 28.9756L53.9713 34.7091C37.8101 33.6386 22.8527 45.5927 27.1681 65.5926Z" fill="#870000"/>
<mask id="mask1_44_4533" style="mask-type:luminance" maskUnits="userSpaceOnUse" x="15" y="25" width="55" height="49">
<path d="M69.8858 46.4323C66.3322 44.3735 60.2877 41.8065 53.1073 42.5246C41.4642 43.689 34.6829 53.4441 44.1579 59.9957C53.6328 66.5476 48.0073 75.8659 41.197 73.3906C34.387 70.9152 38.9763 63.1989 29.946 59.9957C20.9154 56.7929 17.9545 57.0847 15.8819 46.3102C13.8092 35.536 55.2611 25.199 55.2611 25.199L69.8857 34.2259V43.5437V46.4323H69.8858Z" fill="white"/>
</mask>
<g mask="url(#mask1_44_4533)">
<path d="M69.8856 25.199H13.8091V75.8659H69.8856V25.199Z" fill="url(#paint1_linear_44_4533)"/>
</g>
<path opacity="0.3" fill-rule="evenodd" clip-rule="evenodd" d="M26.4139 58.7888C20.0835 56.6484 17.6566 55.5362 15.8819 46.3102C13.8092 35.536 55.2611 25.199 55.2611 25.199L69.8857 34.2259V40.3205C51.7279 27.7803 26.4442 36.9133 26.4139 58.7888Z" fill="#870000"/>
<mask id="mask2_44_4533" style="mask-type:luminance" maskUnits="userSpaceOnUse" x="0" y="0" width="81" height="93">
<path d="M40.2887 0L1.03676 25.2639C0.688248 25.4814 0.34231 25.7041 0 25.9314H10.6921C10.6921 38.6592 9.78026 52.3432 12.3063 64.7509C13.4119 70.18 14.5151 75.8776 13.7389 83.5136C12.2582 98.0732 34.0209 96.9081 24.1021 72.5942C22.9053 69.6602 22.2498 67.0637 22.0476 64.7509C20.7176 49.8263 36.3581 22.1945 69.8855 35.4605V25.9315L80.5798 25.9286C67.2159 17.21 53.711 8.63899 40.2887 0Z" fill="white"/>
</mask>
<g mask="url(#mask2_44_4533)">
<path d="M80.5798 0H0V98.0732H80.5798V0Z" fill="url(#paint2_linear_44_4533)"/>
</g>
<path opacity="0.3" fill-rule="evenodd" clip-rule="evenodd" d="M27.4727 25.1826H39.1161V36.6338H27.4727V25.1826ZM27.4727 38.9427H39.1161V50.3932H27.4727V38.9427ZM41.4641 38.9427H53.1068V50.3932H41.4641V38.9427ZM41.4641 25.1826H53.1068V36.6338H41.4641V25.1826Z" fill="#A70C00"/>
<path fill-rule="evenodd" clip-rule="evenodd" d="M28.4512 25.6208H38.1372V35.1468H28.4512V25.6208ZM28.4512 39.3801H38.1372V48.9059H28.4512V39.3801ZM42.4424 39.3801H52.1285V48.9059H42.4424V39.3801ZM42.4424 25.6208H52.1285V35.1468H42.4424V25.6208Z" fill="white"/>
</g>
<path d="M112.241 80.5861C112.134 80.5861 112.043 80.5488 111.969 80.4741C111.905 80.4101 111.873 80.3248 111.873 80.2181V69.5941C111.873 69.4875 111.905 69.4021 111.969 69.3381C112.043 69.2635 112.134 69.2261 112.241 69.2261H112.977C113.083 69.2261 113.169 69.2635 113.233 69.3381C113.307 69.4021 113.345 69.4875 113.345 69.5941V70.2981C113.601 69.9461 113.942 69.6528 114.369 69.4181C114.795 69.1835 115.329 69.0661 115.969 69.0661C116.566 69.0661 117.073 69.1675 117.489 69.3701C117.915 69.5728 118.262 69.8501 118.529 70.2021C118.806 70.5541 119.014 70.9541 119.153 71.4021C119.291 71.8501 119.366 72.3301 119.377 72.8421C119.387 73.0128 119.393 73.1941 119.393 73.3861C119.393 73.5781 119.387 73.7595 119.377 73.9301C119.366 74.4315 119.291 74.9115 119.153 75.3701C119.014 75.8181 118.806 76.2181 118.529 76.5701C118.262 76.9115 117.915 77.1888 117.489 77.4021C117.073 77.6048 116.566 77.7061 115.969 77.7061C115.35 77.7061 114.827 77.5941 114.401 77.3701C113.985 77.1355 113.643 76.8475 113.377 76.5061V80.2181C113.377 80.3248 113.345 80.4101 113.281 80.4741C113.217 80.5488 113.126 80.5861 113.009 80.5861H112.241ZM115.633 76.4101C116.187 76.4101 116.619 76.2928 116.929 76.0581C117.249 75.8128 117.478 75.4981 117.617 75.1141C117.755 74.7195 117.835 74.2981 117.857 73.8501C117.867 73.5408 117.867 73.2315 117.857 72.9221C117.835 72.4741 117.755 72.0581 117.617 71.6741C117.478 71.2795 117.249 70.9648 116.929 70.7301C116.619 70.4848 116.187 70.3621 115.633 70.3621C115.11 70.3621 114.683 70.4848 114.353 70.7301C114.033 70.9755 113.793 71.2901 113.633 71.6741C113.483 72.0475 113.398 72.4315 113.377 72.8261C113.366 72.9968 113.361 73.1995 113.361 73.4341C113.361 73.6688 113.366 73.8768 113.377 74.0581C113.387 74.4315 113.473 74.7995 113.633 75.1621C113.803 75.5248 114.054 75.8235 114.385 76.0581C114.715 76.2928 115.131 76.4101 115.633 76.4101ZM123.708 77.7061C123.175 77.7061 122.689 77.5995 122.252 77.3861C121.815 77.1728 121.463 76.8848 121.196 76.5221C120.929 76.1595 120.796 75.7488 120.796 75.2901C120.796 74.5541 121.095 73.9675 121.692 73.5301C122.289 73.0928 123.068 72.8048 124.028 72.6661L126.412 72.3301V71.8661C126.412 71.3541 126.263 70.9541 125.964 70.6661C125.676 70.3781 125.201 70.2341 124.54 70.2341C124.06 70.2341 123.671 70.3301 123.372 70.5221C123.084 70.7141 122.881 70.9595 122.764 71.2581C122.7 71.4181 122.588 71.4981 122.428 71.4981H121.708C121.591 71.4981 121.5 71.4661 121.436 71.4021C121.383 71.3275 121.356 71.2421 121.356 71.1461C121.356 70.9861 121.415 70.7888 121.532 70.5541C121.66 70.3195 121.852 70.0901 122.108 69.8661C122.364 69.6421 122.689 69.4555 123.084 69.3061C123.489 69.1461 123.98 69.0661 124.556 69.0661C125.196 69.0661 125.735 69.1515 126.172 69.3221C126.609 69.4821 126.951 69.7008 127.196 69.9781C127.452 70.2555 127.633 70.5701 127.74 70.9221C127.857 71.2741 127.916 71.6315 127.916 71.9941V77.1781C127.916 77.2848 127.879 77.3755 127.804 77.4501C127.74 77.5141 127.655 77.5461 127.548 77.5461H126.812C126.695 77.5461 126.604 77.5141 126.54 77.4501C126.476 77.3755 126.444 77.2848 126.444 77.1781V76.4901C126.305 76.6821 126.119 76.8741 125.884 77.0661C125.649 77.2475 125.356 77.4021 125.004 77.5301C124.652 77.6475 124.22 77.7061 123.708 77.7061ZM124.044 76.5061C124.481 76.5061 124.881 76.4155 125.244 76.2341C125.607 76.0421 125.889 75.7488 126.092 75.3541C126.305 74.9595 126.412 74.4635 126.412 73.8661V73.4181L124.556 73.6901C123.799 73.7968 123.228 73.9781 122.844 74.2341C122.46 74.4795 122.268 74.7941 122.268 75.1781C122.268 75.4768 122.353 75.7275 122.524 75.9301C122.705 76.1221 122.929 76.2661 123.196 76.3621C123.473 76.4581 123.756 76.5061 124.044 76.5061ZM130.584 77.5461C130.477 77.5461 130.387 77.5141 130.312 77.4501C130.248 77.3755 130.216 77.2848 130.216 77.1781V69.5941C130.216 69.4875 130.248 69.4021 130.312 69.3381C130.387 69.2635 130.477 69.2261 130.584 69.2261H131.352C131.459 69.2261 131.544 69.2635 131.608 69.3381C131.672 69.4021 131.704 69.4875 131.704 69.5941V77.1781C131.704 77.2848 131.672 77.3755 131.608 77.4501C131.544 77.5141 131.459 77.5461 131.352 77.5461H130.584ZM130.456 67.6741C130.349 67.6741 130.259 67.6421 130.184 67.5781C130.12 67.5035 130.088 67.4128 130.088 67.3061V66.4421C130.088 66.3355 130.12 66.2501 130.184 66.1861C130.259 66.1115 130.349 66.0741 130.456 66.0741H131.464C131.571 66.0741 131.656 66.1115 131.72 66.1861C131.795 66.2501 131.832 66.3355 131.832 66.4421V67.3061C131.832 67.4128 131.795 67.5035 131.72 67.5781C131.656 67.6421 131.571 67.6741 131.464 67.6741H130.456ZM134.459 77.5461C134.352 77.5461 134.262 77.5141 134.187 77.4501C134.123 77.3755 134.091 77.2848 134.091 77.1781V69.5941C134.091 69.4875 134.123 69.4021 134.187 69.3381C134.262 69.2635 134.352 69.2261 134.459 69.2261H135.211C135.318 69.2261 135.403 69.2635 135.467 69.3381C135.542 69.4021 135.579 69.4875 135.579 69.5941V70.2981C135.856 69.9355 136.203 69.6421 136.619 69.4181C137.046 69.1835 137.59 69.0661 138.251 69.0661C138.944 69.0661 139.531 69.2208 140.011 69.5301C140.502 69.8288 140.87 70.2501 141.115 70.7941C141.36 71.3275 141.483 71.9515 141.483 72.6661V77.1781C141.483 77.2848 141.451 77.3755 141.387 77.4501C141.323 77.5141 141.238 77.5461 141.131 77.5461H140.331C140.224 77.5461 140.134 77.5141 140.059 77.4501C139.995 77.3755 139.963 77.2848 139.963 77.1781V72.7461C139.963 71.9995 139.782 71.4181 139.419 71.0021C139.056 70.5755 138.523 70.3621 137.819 70.3621C137.158 70.3621 136.624 70.5755 136.219 71.0021C135.824 71.4181 135.627 71.9995 135.627 72.7461V77.1781C135.627 77.2848 135.59 77.3755 135.515 77.4501C135.451 77.5141 135.366 77.5461 135.259 77.5461H134.459ZM146.933 77.5461C146.335 77.5461 145.85 77.4341 145.477 77.2101C145.103 76.9755 144.831 76.6501 144.661 76.2341C144.49 75.8075 144.405 75.3061 144.405 74.7301V70.5061H143.157C143.05 70.5061 142.959 70.4741 142.885 70.4101C142.821 70.3355 142.789 70.2448 142.789 70.1381V69.5941C142.789 69.4875 142.821 69.4021 142.885 69.3381C142.959 69.2635 143.05 69.2261 143.157 69.2261H144.405V66.5541C144.405 66.4475 144.437 66.3621 144.501 66.2981C144.575 66.2235 144.666 66.1861 144.773 66.1861H145.525C145.631 66.1861 145.717 66.2235 145.781 66.2981C145.855 66.3621 145.893 66.4475 145.893 66.5541V69.2261H147.877C147.983 69.2261 148.069 69.2635 148.133 69.3381C148.207 69.4021 148.245 69.4875 148.245 69.5941V70.1381C148.245 70.2448 148.207 70.3355 148.133 70.4101C148.069 70.4741 147.983 70.5061 147.877 70.5061H145.893V74.6181C145.893 75.1195 145.978 75.5141 146.149 75.8021C146.319 76.0901 146.623 76.2341 147.061 76.2341H148.037C148.143 76.2341 148.229 76.2715 148.293 76.3461C148.367 76.4101 148.405 76.4955 148.405 76.6021V77.1781C148.405 77.2848 148.367 77.3755 148.293 77.4501C148.229 77.5141 148.143 77.5461 148.037 77.5461H146.933ZM150.303 77.5461C150.196 77.5461 150.105 77.5141 150.031 77.4501C149.967 77.3755 149.935 77.2848 149.935 77.1781V69.5941C149.935 69.4875 149.967 69.4021 150.031 69.3381C150.105 69.2635 150.196 69.2261 150.303 69.2261H151.071C151.177 69.2261 151.263 69.2635 151.327 69.3381C151.391 69.4021 151.423 69.4875 151.423 69.5941V77.1781C151.423 77.2848 151.391 77.3755 151.327 77.4501C151.263 77.5141 151.177 77.5461 151.071 77.5461H150.303ZM150.175 67.6741C150.068 67.6741 149.977 67.6421 149.903 67.5781C149.839 67.5035 149.807 67.4128 149.807 67.3061V66.4421C149.807 66.3355 149.839 66.2501 149.903 66.1861C149.977 66.1115 150.068 66.0741 150.175 66.0741H151.183C151.289 66.0741 151.375 66.1115 151.439 66.1861C151.513 66.2501 151.551 66.3355 151.551 66.4421V67.3061C151.551 67.4128 151.513 67.5035 151.439 67.5781C151.375 67.6421 151.289 67.6741 151.183 67.6741H150.175ZM154.178 77.5461C154.071 77.5461 153.98 77.5141 153.906 77.4501C153.842 77.3755 153.81 77.2848 153.81 77.1781V69.5941C153.81 69.4875 153.842 69.4021 153.906 69.3381C153.98 69.2635 154.071 69.2261 154.178 69.2261H154.93C155.036 69.2261 155.122 69.2635 155.186 69.3381C155.26 69.4021 155.298 69.4875 155.298 69.5941V70.2981C155.575 69.9355 155.922 69.6421 156.338 69.4181C156.764 69.1835 157.308 69.0661 157.97 69.0661C158.663 69.0661 159.25 69.2208 159.73 69.5301C160.22 69.8288 160.588 70.2501 160.834 70.7941C161.079 71.3275 161.202 71.9515 161.202 72.6661V77.1781C161.202 77.2848 161.17 77.3755 161.106 77.4501C161.042 77.5141 160.956 77.5461 160.85 77.5461H160.05C159.943 77.5461 159.852 77.5141 159.778 77.4501C159.714 77.3755 159.682 77.2848 159.682 77.1781V72.7461C159.682 71.9995 159.5 71.4181 159.138 71.0021C158.775 70.5755 158.242 70.3621 157.538 70.3621C156.876 70.3621 156.343 70.5755 155.938 71.0021C155.543 71.4181 155.346 71.9995 155.346 72.7461V77.1781C155.346 77.2848 155.308 77.3755 155.234 77.4501C155.17 77.5141 155.084 77.5461 154.978 77.5461H154.178ZM166.921 81.0661C166.196 81.0661 165.598 80.9701 165.129 80.7781C164.67 80.5861 164.308 80.3515 164.041 80.0741C163.785 79.8075 163.598 79.5355 163.481 79.2581C163.374 78.9915 163.316 78.7781 163.305 78.6181C163.294 78.5115 163.326 78.4208 163.401 78.3461C163.486 78.2715 163.577 78.2341 163.673 78.2341H164.441C164.537 78.2341 164.617 78.2555 164.681 78.2981C164.745 78.3408 164.798 78.4315 164.841 78.5701C164.905 78.7301 165.001 78.9061 165.129 79.0981C165.257 79.3008 165.454 79.4715 165.721 79.6101C165.988 79.7595 166.361 79.8341 166.841 79.8341C167.342 79.8341 167.764 79.7648 168.105 79.6261C168.446 79.4981 168.702 79.2635 168.873 78.9221C169.054 78.5915 169.145 78.1328 169.145 77.5461V76.4581C168.889 76.7888 168.553 77.0661 168.137 77.2901C167.721 77.5035 167.198 77.6101 166.569 77.6101C165.972 77.6101 165.46 77.5088 165.033 77.3061C164.606 77.0928 164.254 76.8101 163.977 76.4581C163.71 76.0955 163.508 75.6848 163.369 75.2261C163.241 74.7675 163.166 74.2875 163.145 73.7861C163.134 73.4875 163.134 73.1941 163.145 72.9061C163.166 72.4048 163.241 71.9248 163.369 71.4661C163.508 71.0075 163.71 70.5968 163.977 70.2341C164.254 69.8715 164.606 69.5888 165.033 69.3861C165.46 69.1728 165.972 69.0661 166.569 69.0661C167.209 69.0661 167.737 69.1888 168.153 69.4341C168.58 69.6688 168.926 69.9568 169.193 70.2981V69.6101C169.193 69.5035 169.225 69.4128 169.289 69.3381C169.364 69.2635 169.454 69.2261 169.561 69.2261H170.297C170.404 69.2261 170.494 69.2635 170.569 69.3381C170.644 69.4128 170.681 69.5035 170.681 69.6101V77.3701C170.681 78.0848 170.558 78.7195 170.313 79.2741C170.078 79.8288 169.684 80.2661 169.129 80.5861C168.585 80.9061 167.849 81.0661 166.921 81.0661ZM166.889 76.3301C167.422 76.3301 167.849 76.2075 168.169 75.9621C168.5 75.7168 168.74 75.4075 168.889 75.0341C169.049 74.6608 169.134 74.2821 169.145 73.8981C169.156 73.7488 169.161 73.5675 169.161 73.3541C169.161 73.1301 169.156 72.9435 169.145 72.7941C169.134 72.4101 169.049 72.0315 168.889 71.6581C168.74 71.2848 168.5 70.9755 168.169 70.7301C167.849 70.4848 167.422 70.3621 166.889 70.3621C166.356 70.3621 165.929 70.4848 165.609 70.7301C165.289 70.9648 165.06 71.2795 164.921 71.6741C164.782 72.0581 164.702 72.4741 164.681 72.9221C164.67 73.1995 164.67 73.4821 164.681 73.7701C164.702 74.2181 164.782 74.6395 164.921 75.0341C165.06 75.4181 165.289 75.7328 165.609 75.9781C165.929 76.2128 166.356 76.3301 166.889 76.3301Z" fill="#F9F7F4"/>
<path d="M104.527 64.3869C101.898 64.3869 99.6277 63.9329 97.7158 63.0247C95.8039 62.0688 94.2266 60.8022 92.9839 59.2249C91.789 57.5998 90.8809 55.7596 90.2595 53.7044C89.6859 51.6491 89.3514 49.4744 89.2558 47.1801C89.208 46.4154 89.1841 45.6984 89.1841 45.0293C89.1841 44.3601 89.208 43.6432 89.2558 42.8784C89.3514 40.632 89.6859 38.4811 90.2595 36.4259C90.8809 34.3706 91.789 32.5304 92.9839 30.9054C94.2266 29.2803 95.8039 28.0137 97.7158 27.1055C99.6277 26.1496 101.898 25.6716 104.527 25.6716C107.347 25.6716 109.689 26.1735 111.553 27.1772C113.417 28.1809 114.946 29.4237 116.141 30.9054V14.4155C116.141 13.9375 116.285 13.5552 116.572 13.2684C116.906 12.9338 117.312 12.7665 117.79 12.7665H121.232C121.71 12.7665 122.092 12.9338 122.379 13.2684C122.713 13.5552 122.881 13.9375 122.881 14.4155V62.021C122.881 62.499 122.713 62.9052 122.379 63.2398C122.092 63.5266 121.71 63.67 121.232 63.67H118.005C117.48 63.67 117.073 63.5266 116.787 63.2398C116.5 62.9052 116.357 62.499 116.357 62.021V59.0098C115.162 60.5393 113.608 61.8298 111.696 62.8813C109.784 63.8851 107.395 64.3869 104.527 64.3869ZM106.032 58.5796C108.422 58.5796 110.334 58.03 111.768 56.9306C113.202 55.8313 114.277 54.4452 114.994 52.7723C115.711 51.0517 116.094 49.3071 116.141 47.5386C116.189 46.7739 116.213 45.8657 116.213 44.8142C116.213 43.7149 116.189 42.7828 116.141 42.0181C116.094 40.3452 115.687 38.6962 114.923 37.0711C114.206 35.446 113.106 34.1077 111.625 33.0562C110.191 32.0047 108.327 31.4789 106.032 31.4789C103.595 31.4789 101.659 32.0286 100.225 33.1279C98.7912 34.1794 97.7636 35.5894 97.1422 37.3579C96.5209 39.0786 96.1624 40.9427 96.0668 42.9501C96.019 44.3362 96.019 45.7223 96.0668 47.1084C96.1624 49.1159 96.5209 51.0039 97.1422 52.7723C97.7636 54.493 98.7912 55.903 100.225 57.0023C101.659 58.0539 103.595 58.5796 106.032 58.5796Z" fill="#F9F7F4"/>
<path d="M135.193 63.67C134.715 63.67 134.308 63.5266 133.974 63.2398C133.687 62.9052 133.544 62.499 133.544 62.021V28.1092C133.544 27.6313 133.687 27.225 133.974 26.8904C134.308 26.5559 134.715 26.3886 135.193 26.3886H138.491C138.969 26.3886 139.375 26.5559 139.709 26.8904C140.044 27.225 140.211 27.6313 140.211 28.1092V31.2638C141.167 29.6387 142.482 28.4199 144.155 27.6074C145.827 26.7948 147.835 26.3886 150.177 26.3886H153.045C153.523 26.3886 153.905 26.5559 154.192 26.8904C154.479 27.1772 154.622 27.5596 154.622 28.0376V30.977C154.622 31.455 154.479 31.8374 154.192 32.1242C153.905 32.4109 153.523 32.5543 153.045 32.5543H148.743C146.162 32.5543 144.131 33.3191 142.649 34.8486C141.167 36.3303 140.426 38.3616 140.426 40.9427V62.021C140.426 62.499 140.259 62.9052 139.925 63.2398C139.59 63.5266 139.184 63.67 138.706 63.67H135.193Z" fill="#F9F7F4"/>
<path d="M179.864 77.292C179.386 77.292 178.979 77.1247 178.645 76.7902C178.358 76.5034 178.215 76.121 178.215 75.6431V28.0376C178.215 27.5596 178.358 27.1772 178.645 26.8904C178.979 26.5559 179.386 26.3886 179.864 26.3886H183.162C183.64 26.3886 184.022 26.5559 184.309 26.8904C184.643 27.1772 184.811 27.5596 184.811 28.0376V31.1921C185.958 29.6148 187.487 28.3004 189.399 27.2489C191.311 26.1974 193.701 25.6716 196.569 25.6716C199.245 25.6716 201.516 26.1257 203.38 27.0338C205.292 27.942 206.845 29.1847 208.04 30.762C209.283 32.3393 210.215 34.1316 210.836 36.1391C211.457 38.1466 211.792 40.2974 211.84 42.5916C211.888 43.3564 211.911 44.1689 211.911 45.0293C211.911 45.8896 211.888 46.7022 211.84 47.4669C211.792 49.7134 211.457 51.8642 210.836 53.9195C210.215 55.9269 209.283 57.7193 208.04 59.2966C206.845 60.8261 205.292 62.0688 203.38 63.0247C201.516 63.9329 199.245 64.3869 196.569 64.3869C193.796 64.3869 191.454 63.8851 189.543 62.8813C187.678 61.8298 186.149 60.5393 184.954 59.0098V75.6431C184.954 76.121 184.811 76.5034 184.524 76.7902C184.237 77.1247 183.831 77.292 183.305 77.292H179.864ZM195.063 58.5796C197.549 58.5796 199.484 58.0539 200.87 57.0023C202.304 55.903 203.332 54.493 203.953 52.7723C204.575 51.0039 204.933 49.1159 205.029 47.1084C205.076 45.7223 205.076 44.3362 205.029 42.9501C204.933 40.9427 204.575 39.0786 203.953 37.3579C203.332 35.5894 202.304 34.1794 200.87 33.1279C199.484 32.0286 197.549 31.4789 195.063 31.4789C192.721 31.4789 190.809 32.0286 189.327 33.1279C187.894 34.2272 186.818 35.6372 186.101 37.3579C185.432 39.0308 185.05 40.7515 184.954 42.5199C184.906 43.2847 184.882 44.1928 184.882 45.2444C184.882 46.2959 184.906 47.2279 184.954 48.0405C185.002 49.7134 185.384 51.3623 186.101 52.9874C186.866 54.6125 187.989 55.9508 189.471 57.0023C190.953 58.0539 192.817 58.5796 195.063 58.5796Z" fill="#F9F7F4"/>
<path fill-rule="evenodd" clip-rule="evenodd" d="M161.21 63.2398C161.544 63.5266 161.95 63.67 162.428 63.67H165.87C166.348 63.67 166.73 63.5266 167.017 63.2398C167.304 62.9052 167.447 62.499 167.447 62.021V28.0376C167.447 27.5596 167.304 27.1772 167.017 26.8904C166.73 26.5559 166.348 26.3886 165.87 26.3886H162.428C161.95 26.3886 161.544 26.5559 161.21 26.8904C160.923 27.1772 160.779 27.5596 160.779 28.0376V62.021C160.779 62.499 160.923 62.9052 161.21 63.2398Z" fill="#F9F7F4"/>
<rect x="160.53" y="11.8901" width="7.96611" height="7.96611" rx="1" fill="#FF7D00"/>
<defs>
<linearGradient id="paint0_linear_44_4533" x1="67.3234" y1="111.543" x2="-27.1063" y2="-94.3064" gradientUnits="userSpaceOnUse">
<stop stop-color="#FF0000"/>
<stop offset="1" stop-color="#FFFF00"/>
</linearGradient>
<linearGradient id="paint1_linear_44_4533" x1="73.8023" y1="131.455" x2="6.97203" y2="-43.5274" gradientUnits="userSpaceOnUse">
<stop stop-color="#FF0000"/>
<stop offset="1" stop-color="#FFFF00"/>
</linearGradient>
<linearGradient id="paint2_linear_44_4533" x1="67.2329" y1="147.905" x2="23.3123" y2="-18.7317" gradientUnits="userSpaceOnUse">
<stop stop-color="#FF0000"/>
<stop offset="1" stop-color="#FFFF00"/>
</linearGradient>
<clipPath id="clip0_44_4533">
<rect width="80.6633" height="93" fill="white"/>
</clipPath>
</defs>
</svg>
