<svg width="143" height="63" viewBox="0 0 143 63" fill="none" xmlns="http://www.w3.org/2000/svg">
<g clip-path="url(#clip0_32_101)">
<mask id="mask0_32_101" style="mask-type:luminance" maskUnits="userSpaceOnUse" x="10" y="19" width="38" height="38">
<path d="M47.0167 38.4514C47.0167 38.4514 44.497 36.2964 42.007 35.7088C40.7659 35.4159 39.4008 36.1936 38.8867 37.5088C37.5029 41.0481 43.6901 43.9321 45.0249 49.0842C45.8435 52.2443 45.4994 56.1193 41.4595 56.8662C37.6039 57.5794 36.6974 53.1181 36.7703 49.4238C36.8498 45.4088 35.7401 40.0712 30.6498 39.9057C29.1457 39.8569 27.6196 40.324 26.071 40.5084C22.7846 40.9001 13.3227 48.7365 11.1315 43.9368C8.94022 39.1371 14.6172 30.0278 14.6172 30.0278L28.5538 19.4939L46.1903 28.2645L47.0167 30.2666V38.4514Z" fill="white"/>
</mask>
<g mask="url(#mask0_32_101)">
<path d="M47.0167 19.4939H8.94025V57.5794H47.0167V19.4939Z" fill="url(#paint0_linear_32_101)"/>
</g>
<path opacity="0.3" fill-rule="evenodd" clip-rule="evenodd" d="M31.5527 39.9948C31.2666 39.9461 30.9657 39.916 30.6498 39.9055C29.1457 39.8567 27.6196 40.3238 26.071 40.5083C24.9906 40.637 23.2426 41.5705 21.305 42.5952C18.5528 40.6798 14.9465 41.2168 11.1588 40.245C11.0304 40.0159 10.9045 39.7856 10.7806 39.5539C11.5093 35.0152 14.6171 30.0276 14.6171 30.0276L28.5537 19.4937L46.1902 28.2643L47.0166 30.2664V34.8882C37.1221 25.5419 28.7029 32.5043 28.9369 35.494C29.0932 37.4925 30.5155 39.0856 31.5527 39.9948Z" fill="#870000"/>
<path opacity="0.3" fill-rule="evenodd" clip-rule="evenodd" d="M18.2779 44.1284C15.1961 45.5621 12.2376 46.3592 11.1315 43.9366C8.94022 39.1369 14.6172 30.0276 14.6172 30.0276L28.5538 19.4937L36.3103 23.351C25.4376 22.6307 15.3747 30.6731 18.2779 44.1284Z" fill="#870000"/>
<mask id="mask1_32_101" style="mask-type:luminance" maskUnits="userSpaceOnUse" x="10" y="16" width="38" height="34">
<path d="M47.0167 31.2382C44.6259 29.8531 40.5594 28.1261 35.7287 28.6092C27.8956 29.3926 23.3333 35.9555 29.7078 40.3632C36.0822 44.7711 32.2976 51.0401 27.7158 49.3748C23.1343 47.7095 26.2218 42.5182 20.1465 40.3632C14.071 38.2085 12.079 38.4048 10.6846 31.1561C9.29024 23.9075 37.1777 16.9531 37.1777 16.9531L47.0166 23.0261V29.2949V31.2382H47.0167Z" fill="white"/>
</mask>
<g mask="url(#mask1_32_101)">
<path d="M47.0166 16.9531H9.29022V51.0401H47.0166V16.9531Z" fill="url(#paint1_linear_32_101)"/>
</g>
<path opacity="0.3" fill-rule="evenodd" clip-rule="evenodd" d="M17.7702 39.5512C13.5114 38.1113 11.8786 37.363 10.6846 31.1561C9.29024 23.9075 37.1777 16.9531 37.1777 16.9531L47.0166 23.0261V27.1264C34.8006 18.6898 17.7907 24.8342 17.7702 39.5512Z" fill="#870000"/>
<mask id="mask2_32_101" style="mask-type:luminance" maskUnits="userSpaceOnUse" x="0" y="0" width="55" height="63">
<path d="M27.1049 0L0.697496 16.9967C0.463031 17.143 0.230295 17.2929 0 17.4458H7.19328C7.19328 26.0086 6.57984 35.2148 8.27929 43.5623C9.02307 47.2148 9.76531 51.048 9.24306 56.1852C8.24695 65.9804 22.8882 65.1966 16.2151 48.839C15.4099 46.8651 14.9689 45.1183 14.8329 43.5623C13.9381 33.5215 24.4606 14.9317 47.0166 23.8567V17.4459L54.2114 17.4439C45.2206 11.5784 36.135 5.81203 27.1049 0Z" fill="white"/>
</mask>
<g mask="url(#mask2_32_101)">
<path d="M54.2114 0H0V65.9804H54.2114V0Z" fill="url(#paint2_linear_32_101)"/>
</g>
<path opacity="0.3" fill-rule="evenodd" clip-rule="evenodd" d="M18.4825 16.9421H26.3158V24.6461H18.4825V16.9421ZM18.4825 26.1995H26.3158V33.903H18.4825V26.1995ZM27.8956 26.1995H35.7284V33.903H27.8956V26.1995ZM27.8956 16.9421H35.7284V24.6461H27.8956V16.9421Z" fill="#A70C00"/>
<path fill-rule="evenodd" clip-rule="evenodd" d="M19.1409 17.2368H25.6574V23.6456H19.1409V17.2368ZM19.1409 26.4936H25.6574V32.9023H19.1409V26.4936ZM28.5538 26.4936H35.0702V32.9023H28.5538V26.4936ZM28.5538 17.2368H35.0702V23.6456H28.5538V17.2368Z" fill="white"/>
</g>
<path d="M73.7248 56.28C73.6448 56.28 73.5768 56.252 73.5208 56.196C73.4728 56.148 73.4488 56.084 73.4488 56.004V48.036C73.4488 47.956 73.4728 47.892 73.5208 47.844C73.5768 47.788 73.6448 47.76 73.7248 47.76H74.2768C74.3568 47.76 74.4208 47.788 74.4688 47.844C74.5248 47.892 74.5528 47.956 74.5528 48.036V48.564C74.7448 48.3 75.0008 48.08 75.3208 47.904C75.6408 47.728 76.0408 47.64 76.5208 47.64C76.9688 47.64 77.3488 47.716 77.6608 47.868C77.9808 48.02 78.2408 48.228 78.4408 48.492C78.6488 48.756 78.8048 49.056 78.9088 49.392C79.0128 49.728 79.0688 50.088 79.0768 50.472C79.0848 50.6 79.0888 50.736 79.0888 50.88C79.0888 51.024 79.0848 51.16 79.0768 51.288C79.0688 51.664 79.0128 52.024 78.9088 52.368C78.8048 52.704 78.6488 53.004 78.4408 53.268C78.2408 53.524 77.9808 53.732 77.6608 53.892C77.3488 54.044 76.9688 54.12 76.5208 54.12C76.0568 54.12 75.6648 54.036 75.3448 53.868C75.0328 53.692 74.7768 53.476 74.5768 53.22V56.004C74.5768 56.084 74.5528 56.148 74.5048 56.196C74.4568 56.252 74.3888 56.28 74.3008 56.28H73.7248ZM76.2688 53.148C76.6848 53.148 77.0088 53.06 77.2408 52.884C77.4808 52.7 77.6528 52.464 77.7568 52.176C77.8608 51.88 77.9208 51.564 77.9368 51.228C77.9448 50.996 77.9448 50.764 77.9368 50.532C77.9208 50.196 77.8608 49.884 77.7568 49.596C77.6528 49.3 77.4808 49.064 77.2408 48.888C77.0088 48.704 76.6848 48.612 76.2688 48.612C75.8768 48.612 75.5568 48.704 75.3088 48.888C75.0688 49.072 74.8888 49.308 74.7688 49.596C74.6568 49.876 74.5928 50.164 74.5768 50.46C74.5688 50.588 74.5648 50.74 74.5648 50.916C74.5648 51.092 74.5688 51.248 74.5768 51.384C74.5848 51.664 74.6488 51.94 74.7688 52.212C74.8968 52.484 75.0848 52.708 75.3328 52.884C75.5808 53.06 75.8928 53.148 76.2688 53.148ZM82.3253 54.12C81.9253 54.12 81.5613 54.04 81.2333 53.88C80.9053 53.72 80.6413 53.504 80.4413 53.232C80.2413 52.96 80.1413 52.652 80.1413 52.308C80.1413 51.756 80.3653 51.316 80.8133 50.988C81.2613 50.66 81.8453 50.444 82.5653 50.34L84.3533 50.088V49.74C84.3533 49.356 84.2413 49.056 84.0173 48.84C83.8013 48.624 83.4453 48.516 82.9493 48.516C82.5893 48.516 82.2973 48.588 82.0733 48.732C81.8573 48.876 81.7053 49.06 81.6173 49.284C81.5693 49.404 81.4853 49.464 81.3653 49.464H80.8253C80.7373 49.464 80.6693 49.44 80.6213 49.392C80.5813 49.336 80.5613 49.272 80.5613 49.2C80.5613 49.08 80.6053 48.932 80.6933 48.756C80.7893 48.58 80.9333 48.408 81.1253 48.24C81.3173 48.072 81.5613 47.932 81.8573 47.82C82.1613 47.7 82.5293 47.64 82.9613 47.64C83.4413 47.64 83.8453 47.704 84.1733 47.832C84.5013 47.952 84.7573 48.116 84.9413 48.324C85.1333 48.532 85.2693 48.768 85.3493 49.032C85.4373 49.296 85.4813 49.564 85.4813 49.836V53.724C85.4813 53.804 85.4533 53.872 85.3973 53.928C85.3493 53.976 85.2853 54 85.2053 54H84.6533C84.5653 54 84.4973 53.976 84.4493 53.928C84.4013 53.872 84.3773 53.804 84.3773 53.724V53.208C84.2733 53.352 84.1333 53.496 83.9573 53.64C83.7813 53.776 83.5613 53.892 83.2973 53.988C83.0333 54.076 82.7093 54.12 82.3253 54.12ZM82.5773 53.22C82.9053 53.22 83.2053 53.152 83.4773 53.016C83.7493 52.872 83.9613 52.652 84.1133 52.356C84.2733 52.06 84.3533 51.688 84.3533 51.24V50.904L82.9613 51.108C82.3933 51.188 81.9653 51.324 81.6773 51.516C81.3893 51.7 81.2453 51.936 81.2453 52.224C81.2453 52.448 81.3093 52.636 81.4373 52.788C81.5733 52.932 81.7413 53.04 81.9413 53.112C82.1493 53.184 82.3613 53.22 82.5773 53.22ZM87.4824 54C87.4024 54 87.3344 53.976 87.2784 53.928C87.2304 53.872 87.2064 53.804 87.2064 53.724V48.036C87.2064 47.956 87.2304 47.892 87.2784 47.844C87.3344 47.788 87.4024 47.76 87.4824 47.76H88.0584C88.1384 47.76 88.2024 47.788 88.2504 47.844C88.2984 47.892 88.3224 47.956 88.3224 48.036V53.724C88.3224 53.804 88.2984 53.872 88.2504 53.928C88.2024 53.976 88.1384 54 88.0584 54H87.4824ZM87.3864 46.596C87.3064 46.596 87.2384 46.572 87.1824 46.524C87.1344 46.468 87.1104 46.4 87.1104 46.32V45.672C87.1104 45.592 87.1344 45.528 87.1824 45.48C87.2384 45.424 87.3064 45.396 87.3864 45.396H88.1424C88.2224 45.396 88.2864 45.424 88.3344 45.48C88.3904 45.528 88.4184 45.592 88.4184 45.672V46.32C88.4184 46.4 88.3904 46.468 88.3344 46.524C88.2864 46.572 88.2224 46.596 88.1424 46.596H87.3864ZM90.3886 54C90.3086 54 90.2406 53.976 90.1846 53.928C90.1366 53.872 90.1126 53.804 90.1126 53.724V48.036C90.1126 47.956 90.1366 47.892 90.1846 47.844C90.2406 47.788 90.3086 47.76 90.3886 47.76H90.9526C91.0326 47.76 91.0966 47.788 91.1446 47.844C91.2006 47.892 91.2286 47.956 91.2286 48.036V48.564C91.4366 48.292 91.6966 48.072 92.0086 47.904C92.3286 47.728 92.7366 47.64 93.2326 47.64C93.7526 47.64 94.1926 47.756 94.5526 47.988C94.9206 48.212 95.1966 48.528 95.3806 48.936C95.5646 49.336 95.6566 49.804 95.6566 50.34V53.724C95.6566 53.804 95.6326 53.872 95.5846 53.928C95.5366 53.976 95.4726 54 95.3926 54H94.7926C94.7126 54 94.6446 53.976 94.5886 53.928C94.5406 53.872 94.5166 53.804 94.5166 53.724V50.4C94.5166 49.84 94.3806 49.404 94.1086 49.092C93.8366 48.772 93.4366 48.612 92.9086 48.612C92.4126 48.612 92.0126 48.772 91.7086 49.092C91.4126 49.404 91.2646 49.84 91.2646 50.4V53.724C91.2646 53.804 91.2366 53.872 91.1806 53.928C91.1326 53.976 91.0686 54 90.9886 54H90.3886ZM99.7439 54C99.2959 54 98.9319 53.916 98.6519 53.748C98.3719 53.572 98.1679 53.328 98.0399 53.016C97.9119 52.696 97.8479 52.32 97.8479 51.888V48.72H96.9119C96.8319 48.72 96.7639 48.696 96.7079 48.648C96.6599 48.592 96.6359 48.524 96.6359 48.444V48.036C96.6359 47.956 96.6599 47.892 96.7079 47.844C96.7639 47.788 96.8319 47.76 96.9119 47.76H97.8479V45.756C97.8479 45.676 97.8719 45.612 97.9199 45.564C97.9759 45.508 98.0439 45.48 98.1239 45.48H98.6879C98.7679 45.48 98.8319 45.508 98.8799 45.564C98.9359 45.612 98.9639 45.676 98.9639 45.756V47.76H100.452C100.532 47.76 100.596 47.788 100.644 47.844C100.7 47.892 100.728 47.956 100.728 48.036V48.444C100.728 48.524 100.7 48.592 100.644 48.648C100.596 48.696 100.532 48.72 100.452 48.72H98.9639V51.804C98.9639 52.18 99.0279 52.476 99.1559 52.692C99.2839 52.908 99.5119 53.016 99.8399 53.016H100.572C100.652 53.016 100.716 53.044 100.764 53.1C100.82 53.148 100.848 53.212 100.848 53.292V53.724C100.848 53.804 100.82 53.872 100.764 53.928C100.716 53.976 100.652 54 100.572 54H99.7439ZM102.271 54C102.191 54 102.123 53.976 102.067 53.928C102.019 53.872 101.995 53.804 101.995 53.724V48.036C101.995 47.956 102.019 47.892 102.067 47.844C102.123 47.788 102.191 47.76 102.271 47.76H102.847C102.927 47.76 102.991 47.788 103.039 47.844C103.087 47.892 103.111 47.956 103.111 48.036V53.724C103.111 53.804 103.087 53.872 103.039 53.928C102.991 53.976 102.927 54 102.847 54H102.271ZM102.175 46.596C102.095 46.596 102.027 46.572 101.971 46.524C101.923 46.468 101.899 46.4 101.899 46.32V45.672C101.899 45.592 101.923 45.528 101.971 45.48C102.027 45.424 102.095 45.396 102.175 45.396H102.931C103.011 45.396 103.075 45.424 103.123 45.48C103.179 45.528 103.207 45.592 103.207 45.672V46.32C103.207 46.4 103.179 46.468 103.123 46.524C103.075 46.572 103.011 46.596 102.931 46.596H102.175ZM105.178 54C105.098 54 105.03 53.976 104.974 53.928C104.926 53.872 104.902 53.804 104.902 53.724V48.036C104.902 47.956 104.926 47.892 104.974 47.844C105.03 47.788 105.098 47.76 105.178 47.76H105.742C105.822 47.76 105.886 47.788 105.934 47.844C105.99 47.892 106.018 47.956 106.018 48.036V48.564C106.226 48.292 106.486 48.072 106.798 47.904C107.118 47.728 107.526 47.64 108.022 47.64C108.542 47.64 108.982 47.756 109.342 47.988C109.71 48.212 109.986 48.528 110.17 48.936C110.354 49.336 110.446 49.804 110.446 50.34V53.724C110.446 53.804 110.422 53.872 110.374 53.928C110.326 53.976 110.262 54 110.182 54H109.582C109.502 54 109.434 53.976 109.378 53.928C109.33 53.872 109.306 53.804 109.306 53.724V50.4C109.306 49.84 109.17 49.404 108.898 49.092C108.626 48.772 108.226 48.612 107.698 48.612C107.202 48.612 106.802 48.772 106.498 49.092C106.202 49.404 106.054 49.84 106.054 50.4V53.724C106.054 53.804 106.026 53.872 105.97 53.928C105.922 53.976 105.858 54 105.778 54H105.178ZM114.735 56.64C114.191 56.64 113.743 56.568 113.391 56.424C113.047 56.28 112.775 56.104 112.575 55.896C112.383 55.696 112.243 55.492 112.155 55.284C112.075 55.084 112.031 54.924 112.023 54.804C112.015 54.724 112.039 54.656 112.095 54.6C112.159 54.544 112.227 54.516 112.299 54.516H112.875C112.947 54.516 113.007 54.532 113.055 54.564C113.103 54.596 113.143 54.664 113.175 54.768C113.223 54.888 113.295 55.02 113.391 55.164C113.487 55.316 113.635 55.444 113.835 55.548C114.035 55.66 114.315 55.716 114.675 55.716C115.051 55.716 115.367 55.664 115.623 55.56C115.879 55.464 116.071 55.288 116.199 55.032C116.335 54.784 116.403 54.44 116.403 54V53.184C116.211 53.432 115.959 53.64 115.647 53.808C115.335 53.968 114.943 54.048 114.471 54.048C114.023 54.048 113.639 53.972 113.319 53.82C112.999 53.66 112.735 53.448 112.527 53.184C112.327 52.912 112.175 52.604 112.071 52.26C111.975 51.916 111.919 51.556 111.903 51.18C111.895 50.956 111.895 50.736 111.903 50.52C111.919 50.144 111.975 49.784 112.071 49.44C112.175 49.096 112.327 48.788 112.527 48.516C112.735 48.244 112.999 48.032 113.319 47.88C113.639 47.72 114.023 47.64 114.471 47.64C114.951 47.64 115.347 47.732 115.659 47.916C115.979 48.092 116.239 48.308 116.439 48.564V48.048C116.439 47.968 116.463 47.9 116.511 47.844C116.567 47.788 116.635 47.76 116.715 47.76H117.267C117.347 47.76 117.415 47.788 117.471 47.844C117.527 47.9 117.555 47.968 117.555 48.048V53.868C117.555 54.404 117.463 54.88 117.279 55.296C117.103 55.712 116.807 56.04 116.391 56.28C115.983 56.52 115.431 56.64 114.735 56.64ZM114.711 53.088C115.111 53.088 115.431 52.996 115.671 52.812C115.919 52.628 116.099 52.396 116.211 52.116C116.331 51.836 116.395 51.552 116.403 51.264C116.411 51.152 116.415 51.016 116.415 50.856C116.415 50.688 116.411 50.548 116.403 50.436C116.395 50.148 116.331 49.864 116.211 49.584C116.099 49.304 115.919 49.072 115.671 48.888C115.431 48.704 115.111 48.612 114.711 48.612C114.311 48.612 113.991 48.704 113.751 48.888C113.511 49.064 113.339 49.3 113.235 49.596C113.131 49.884 113.071 50.196 113.055 50.532C113.047 50.74 113.047 50.952 113.055 51.168C113.071 51.504 113.131 51.82 113.235 52.116C113.339 52.404 113.511 52.64 113.751 52.824C113.991 53 114.311 53.088 114.711 53.088Z" fill="black"/>
<path d="M70.3221 43.3179C68.5535 43.3179 67.0261 43.0124 65.7399 42.4014C64.4536 41.7583 63.3925 40.9062 62.5564 39.845C61.7525 38.7517 61.1415 37.5137 60.7235 36.131C60.3376 34.7483 60.1125 33.2852 60.0482 31.7417C60.0161 31.2272 60 30.7449 60 30.2947C60 29.8445 60.0161 29.3621 60.0482 28.8476C60.1125 27.3363 60.3376 25.8893 60.7235 24.5066C61.1415 23.1239 61.7525 21.8859 62.5564 20.7926C63.3925 19.6993 64.4536 18.8471 65.7399 18.2362C67.0261 17.593 68.5535 17.2715 70.3221 17.2715C72.2193 17.2715 73.7949 17.6091 75.049 18.2844C76.3031 18.9597 77.3321 19.7957 78.136 20.7926V9.69873C78.136 9.37717 78.2325 9.11992 78.4254 8.92699C78.6505 8.70189 78.9238 8.58935 79.2454 8.58935H81.5606C81.8822 8.58935 82.1394 8.70189 82.3324 8.92699C82.5575 9.11992 82.67 9.37717 82.67 9.69873V41.7261C82.67 42.0477 82.5575 42.321 82.3324 42.5461C82.1394 42.7391 81.8822 42.8355 81.5606 42.8355H79.3901C79.0364 42.8355 78.763 42.7391 78.5701 42.5461C78.3772 42.321 78.2807 42.0477 78.2807 41.7261V39.7003C77.4768 40.7293 76.4317 41.5975 75.1455 42.305C73.8593 42.9802 72.2514 43.3179 70.3221 43.3179ZM71.335 39.4109C72.9428 39.4109 74.229 39.0411 75.1937 38.3015C76.1584 37.5619 76.8819 36.6294 77.3643 35.504C77.8466 34.3463 78.1038 33.1726 78.136 31.9829C78.1682 31.4684 78.1842 30.8574 78.1842 30.15C78.1842 29.4104 78.1682 28.7833 78.136 28.2688C78.1038 27.1434 77.8305 26.034 77.316 24.9407C76.8337 23.8474 76.0941 22.947 75.0973 22.2396C74.1326 21.5322 72.8785 21.1784 71.335 21.1784C69.695 21.1784 68.3927 21.5482 67.428 22.2878C66.4634 22.9953 65.772 23.9439 65.354 25.1336C64.936 26.2912 64.6948 27.5453 64.6305 28.8959C64.5983 29.8284 64.5983 30.7609 64.6305 31.6935C64.6948 33.044 64.936 34.3142 65.354 35.504C65.772 36.6616 66.4634 37.6102 67.428 38.3498C68.3927 39.0572 69.695 39.4109 71.335 39.4109Z" fill="black"/>
<path d="M90.9531 42.8355C90.6315 42.8355 90.3582 42.7391 90.1331 42.5461C89.9402 42.321 89.8437 42.0477 89.8437 41.7261V18.9114C89.8437 18.5899 89.9402 18.3165 90.1331 18.0915C90.3582 17.8664 90.6315 17.7538 90.9531 17.7538H93.1718C93.4934 17.7538 93.7667 17.8664 93.9918 18.0915C94.2169 18.3165 94.3295 18.5899 94.3295 18.9114V21.0337C94.9726 19.9404 95.8569 19.1204 96.9823 18.5738C98.1078 18.0271 99.4583 17.7538 101.034 17.7538H102.963C103.285 17.7538 103.542 17.8664 103.735 18.0915C103.928 18.2844 104.025 18.5416 104.025 18.8632V20.8408C104.025 21.1624 103.928 21.4196 103.735 21.6125C103.542 21.8055 103.285 21.9019 102.963 21.9019H100.069C98.3329 21.9019 96.9663 22.4164 95.9694 23.4454C94.9726 24.4423 94.4742 25.8089 94.4742 27.5453V41.7261C94.4742 42.0477 94.3616 42.321 94.1365 42.5461C93.9114 42.7391 93.6381 42.8355 93.3165 42.8355H90.9531Z" fill="black"/>
<path d="M121.006 52C120.685 52 120.411 51.8874 120.186 51.6624C119.993 51.4694 119.897 51.2122 119.897 50.8906V18.8632C119.897 18.5416 119.993 18.2844 120.186 18.0915C120.411 17.8664 120.685 17.7538 121.006 17.7538H123.225C123.547 17.7538 123.804 17.8664 123.997 18.0915C124.222 18.2844 124.334 18.5416 124.334 18.8632V20.9855C125.106 19.9243 126.135 19.0401 127.421 18.3326C128.708 17.6252 130.315 17.2715 132.245 17.2715C134.046 17.2715 135.573 17.577 136.827 18.1879C138.113 18.7989 139.158 19.6349 139.962 20.6961C140.798 21.7572 141.425 22.9631 141.843 24.3136C142.261 25.6642 142.487 27.1112 142.519 28.6547C142.551 29.1692 142.567 29.7159 142.567 30.2947C142.567 30.8735 142.551 31.4201 142.519 31.9346C142.487 33.446 142.261 34.893 141.843 36.2757C141.425 37.6262 140.798 38.8321 139.962 39.8932C139.158 40.9222 138.113 41.7583 136.827 42.4014C135.573 43.0124 134.046 43.3179 132.245 43.3179C130.38 43.3179 128.804 42.9802 127.518 42.305C126.264 41.5975 125.235 40.7293 124.431 39.7003V50.8906C124.431 51.2122 124.334 51.4694 124.141 51.6624C123.949 51.8874 123.675 52 123.322 52H121.006ZM131.232 39.4109C132.904 39.4109 134.206 39.0572 135.139 38.3498C136.104 37.6102 136.795 36.6616 137.213 35.504C137.631 34.3142 137.872 33.044 137.936 31.6935C137.969 30.7609 137.969 29.8284 137.936 28.8959C137.872 27.5453 137.631 26.2912 137.213 25.1336C136.795 23.9439 136.104 22.9953 135.139 22.2878C134.206 21.5482 132.904 21.1784 131.232 21.1784C129.656 21.1784 128.37 21.5482 127.373 22.2878C126.408 23.0274 125.685 23.976 125.203 25.1336C124.752 26.2591 124.495 27.4167 124.431 28.6065C124.399 29.121 124.383 29.7319 124.383 30.4394C124.383 31.1468 124.399 31.7739 124.431 32.3205C124.463 33.446 124.72 34.5553 125.203 35.6487C125.717 36.742 126.473 37.6423 127.47 38.3498C128.466 39.0572 129.721 39.4109 131.232 39.4109Z" fill="black"/>
<path fill-rule="evenodd" clip-rule="evenodd" d="M108.456 42.5461C108.681 42.7391 108.955 42.8355 109.276 42.8355H111.592C111.913 42.8355 112.17 42.7391 112.363 42.5461C112.556 42.321 112.653 42.0477 112.653 41.7261V18.8632C112.653 18.5416 112.556 18.2844 112.363 18.0915C112.17 17.8664 111.913 17.7538 111.592 17.7538H109.276C108.955 17.7538 108.681 17.8664 108.456 18.0915C108.263 18.2844 108.167 18.5416 108.167 18.8632V41.7261C108.167 42.0477 108.263 42.321 108.456 42.5461Z" fill="black"/>
<rect x="108" y="8" width="5.35934" height="5.35934" rx="1" fill="#FF7D00"/>
<defs>
<linearGradient id="paint0_linear_32_101" x1="45.2931" y1="75.0423" x2="-18.2361" y2="-63.4461" gradientUnits="userSpaceOnUse">
<stop stop-color="#FF0000"/>
<stop offset="1" stop-color="#FFFF00"/>
</linearGradient>
<linearGradient id="paint1_linear_32_101" x1="49.6517" y1="88.4385" x2="4.69047" y2="-29.2837" gradientUnits="userSpaceOnUse">
<stop stop-color="#FF0000"/>
<stop offset="1" stop-color="#FFFF00"/>
</linearGradient>
<linearGradient id="paint2_linear_32_101" x1="45.2321" y1="99.5055" x2="15.6837" y2="-12.6021" gradientUnits="userSpaceOnUse">
<stop stop-color="#FF0000"/>
<stop offset="1" stop-color="#FFFF00"/>
</linearGradient>
<clipPath id="clip0_32_101">
<rect width="54.2676" height="62.5673" fill="white"/>
</clipPath>
</defs>
</svg>
